<svg width="31" height="31" viewBox="0 0 31 31" fill="none" xmlns="http://www.w3.org/2000/svg">
<path d="M5.16663 7.75H25.8333L23.7925 26.1175C23.7225 26.7496 23.4218 27.3337 22.948 27.7579C22.4742 28.1822 21.8606 28.4167 21.2246 28.4167H9.77529C9.13932 28.4167 8.52568 28.1822 8.05188 27.7579C7.57808 27.3337 7.27742 26.7496 7.20746 26.1175L5.16663 7.75Z" stroke="#37B46A" stroke-width="2" stroke-linecap="round" stroke-linejoin="round"/>
<path d="M9.48729 4.06479C9.69622 3.62171 10.0268 3.24716 10.4405 2.98485C10.8543 2.72253 11.334 2.58325 11.8239 2.58325H19.1761C19.6662 2.583 20.1462 2.72217 20.5602 2.9845C20.9742 3.24683 21.305 3.62151 21.514 4.06479L23.25 7.74992H7.75L9.48729 4.06479Z" stroke="#37B46A" stroke-width="2" stroke-linecap="round" stroke-linejoin="round"/>
<path d="M2.58331 7.75H28.4166" stroke="#37B46A" stroke-width="2" stroke-linecap="round" stroke-linejoin="round"/>
<path d="M12.9166 14.2083V20.6666" stroke="#37B46A" stroke-width="2" stroke-linecap="round" stroke-linejoin="round"/>
<path d="M18.0833 14.2083V20.6666" stroke="#37B46A" stroke-width="2" stroke-linecap="round" stroke-linejoin="round"/>
</svg>
