<svg width="23" height="23" viewBox="0 0 23 23" fill="none" xmlns="http://www.w3.org/2000/svg">
<path d="M13.9046 11.2577L21.9671 3.21392C22.3202 2.86085 22.5185 2.38199 22.5185 1.88267C22.5185 1.38336 22.3202 0.904491 21.9671 0.551422C21.614 0.198352 21.1352 0 20.6359 0C20.1366 0 19.6577 0.198352 19.3046 0.551422L11.2609 8.61392L3.21712 0.551422C2.86405 0.198352 2.38519 -3.72019e-09 1.88587 0C1.38656 3.72019e-09 0.907691 0.198352 0.554622 0.551422C0.201552 0.904491 0.00319988 1.38336 0.00319988 1.88267C0.00319987 2.38199 0.201552 2.86085 0.554622 3.21392L8.61712 11.2577L0.554622 19.3014C0.378881 19.4757 0.239392 19.6831 0.144201 19.9116C0.0490097 20.1401 0 20.3851 0 20.6327C0 20.8802 0.0490097 21.1253 0.144201 21.3538C0.239392 21.5822 0.378881 21.7896 0.554622 21.9639C0.728927 22.1397 0.936304 22.2792 1.16479 22.3743C1.39328 22.4695 1.63835 22.5185 1.88587 22.5185C2.13339 22.5185 2.37847 22.4695 2.60695 22.3743C2.83544 22.2792 3.04282 22.1397 3.21712 21.9639L11.2609 13.9014L19.3046 21.9639C19.4789 22.1397 19.6863 22.2792 19.9148 22.3743C20.1433 22.4695 20.3883 22.5185 20.6359 22.5185C20.8834 22.5185 21.1285 22.4695 21.357 22.3743C21.5854 22.2792 21.7928 22.1397 21.9671 21.9639C22.1429 21.7896 22.2824 21.5822 22.3775 21.3538C22.4727 21.1253 22.5217 20.8802 22.5217 20.6327C22.5217 20.3851 22.4727 20.1401 22.3775 19.9116C22.2824 19.6831 22.1429 19.4757 21.9671 19.3014L13.9046 11.2577Z" fill="#37B47E"/>
</svg>
