<svg width="64" height="64" viewBox="0 0 64 64" fill="none" xmlns="http://www.w3.org/2000/svg">
<path d="M16 48L57.3333 6.66666M54.4667 58.56L52.368 58.1413C49.2347 57.5147 47.808 53.332 48.804 50.296C51.4093 42.3493 49.5 32.1493 48.444 27.7453C48.116 26.38 47.0333 25.3533 45.6707 25.012L42.6533 24.2587C41.9499 24.0828 41.3075 23.7191 40.7949 23.2065C40.2822 22.6938 39.9185 22.0514 39.7427 21.348L38.9893 18.332C38.648 16.968 37.6227 15.8867 36.256 15.5587C31.8533 14.5027 21.6507 12.592 13.7053 15.1987C10.6707 16.1947 6.488 14.7667 5.86134 11.6333L5.44 9.53466L54.4667 58.56ZM8 14.6667L50.6667 57.3333L8 14.6667Z" stroke="#37B47E" stroke-width="4" stroke-linecap="round" stroke-linejoin="round"/>
</svg>
