<svg width="34" height="30" viewBox="0 0 34 30" fill="none" xmlns="http://www.w3.org/2000/svg">
<path d="M31.5833 12.9167H6.87501L14.4375 3.83334C14.7911 3.40789 14.9613 2.85939 14.9105 2.3085C14.8597 1.75761 14.5921 1.24946 14.1667 0.895838C13.7412 0.542216 13.1927 0.372087 12.6418 0.422878C12.0909 0.473669 11.5828 0.74122 11.2292 1.16667L0.81251 13.6667C0.742428 13.7661 0.679759 13.8705 0.62501 13.9792C0.62501 14.0833 0.62501 14.1458 0.479177 14.25C0.384747 14.4889 0.335304 14.7432 0.333344 15C0.335304 15.2569 0.384747 15.5111 0.479177 15.75C0.479177 15.8542 0.479177 15.9167 0.62501 16.0208C0.679759 16.1295 0.742428 16.2339 0.81251 16.3333L11.2292 28.8333C11.4251 29.0685 11.6703 29.2576 11.9476 29.3873C12.2249 29.5169 12.5273 29.5838 12.8333 29.5833C13.3201 29.5843 13.7919 29.4148 14.1667 29.1042C14.3776 28.9293 14.552 28.7145 14.6798 28.4721C14.8076 28.2297 14.8864 27.9645 14.9115 27.6916C14.9367 27.4187 14.9078 27.1436 14.8264 26.8819C14.7451 26.6202 14.6129 26.3772 14.4375 26.1667L6.87501 17.0833H31.5833C32.1359 17.0833 32.6658 16.8638 33.0565 16.4731C33.4472 16.0824 33.6667 15.5525 33.6667 15C33.6667 14.4475 33.4472 13.9176 33.0565 13.5269C32.6658 13.1362 32.1359 12.9167 31.5833 12.9167Z" fill="#37B47E"/>
</svg>
